<svg width="15" height="24" viewBox="0 0 15 24" fill="none" xmlns="http://www.w3.org/2000/svg">
<path d="M0.511719 11.7891C0.511719 10.6094 0.613281 9.50781 0.816406 8.48438C1.01953 7.45312 1.32812 6.44141 1.74219 5.44922C2.15625 4.44922 2.66797 3.44922 3.27734 2.44922C3.64453 1.83984 3.95312 1.40234 4.20312 1.13672C4.45312 0.863281 4.6875 0.695312 4.90625 0.632812C5.13281 0.5625 5.42188 0.527344 5.77344 0.527344C6.15625 0.527344 6.34766 0.632812 6.34766 0.84375C6.34766 0.914062 6.16797 1.33984 5.80859 2.12109C5.44922 2.89453 5.10938 3.70703 4.78906 4.55859C4.47656 5.41016 4.18359 6.47266 3.91016 7.74609C3.64453 9.01953 3.51172 10.3672 3.51172 11.7891C3.51172 13.1953 3.64453 14.5273 3.91016 15.7852C4.17578 17.043 4.47656 18.1328 4.8125 19.0547C5.15625 19.9766 5.49609 20.8008 5.83203 21.5273C6.17578 22.2617 6.34766 22.6602 6.34766 22.7227C6.34766 22.9336 6.15625 23.0391 5.77344 23.0391C5.41406 23.0391 5.12109 23 4.89453 22.9219C4.67578 22.8516 4.44531 22.6797 4.20312 22.4062C3.96094 22.1328 3.65234 21.6953 3.27734 21.0938C2.66016 20.0625 2.14844 19.0664 1.74219 18.1055C1.34375 17.1523 1.03906 16.1602 0.828125 15.1289C0.617188 14.0977 0.511719 12.9844 0.511719 11.7891ZM14.5156 11.7891C14.5156 13.5078 14.2852 15.1055 13.8242 16.582C13.3711 18.0586 12.6797 19.5625 11.75 21.0938C11.2266 21.9531 10.8125 22.4922 10.5078 22.7109C10.2031 22.9297 9.78906 23.0391 9.26562 23.0391C8.875 23.0391 8.67969 22.9336 8.67969 22.7227C8.67969 22.6523 8.84375 22.2734 9.17188 21.5859C9.5 20.9062 9.83984 20.0938 10.1914 19.1484C10.5508 18.2031 10.8594 17.0938 11.1172 15.8203C11.3828 14.5391 11.5156 13.1953 11.5156 11.7891C11.5156 10.375 11.3828 9.02734 11.1172 7.74609C10.8516 6.46484 10.543 5.35547 10.1914 4.41797C9.83984 3.48047 9.5 2.66797 9.17188 1.98047C8.84375 1.28516 8.67969 0.90625 8.67969 0.84375C8.67969 0.632812 8.875 0.527344 9.26562 0.527344C9.8125 0.527344 10.2344 0.632812 10.5312 0.84375C10.8281 1.04687 11.2344 1.58203 11.75 2.44922C12.2109 3.21484 12.6133 3.96875 12.957 4.71094C13.3008 5.45312 13.5859 6.19531 13.8125 6.9375C14.0469 7.67969 14.2227 8.45312 14.3398 9.25781C14.457 10.0625 14.5156 10.9062 14.5156 11.7891Z" fill="#A160FB"/>
</svg>
