<svg width="15" height="15" viewBox="0 0 15 15" fill="none" xmlns="http://www.w3.org/2000/svg">
<path d="M12.8328 0.384817C12.9491 0.264426 13.0882 0.168398 13.242 0.102336C13.3958 0.036274 13.5612 0.00150198 13.7285 4.75929e-05C13.8959 -0.0014068 14.0619 0.0304858 14.2168 0.0938651C14.3717 0.157244 14.5125 0.250841 14.6308 0.369193C14.7492 0.487545 14.8428 0.628283 14.9061 0.783194C14.9695 0.938106 15.0014 1.10409 15 1.27146C14.9985 1.43883 14.9637 1.60423 14.8977 1.75802C14.8316 1.9118 14.7356 2.05089 14.6152 2.16717L2.13619 14.6462C1.89846 14.8758 1.58005 15.0028 1.24955 15C0.919051 14.9971 0.602901 14.8645 0.369193 14.6308C0.135485 14.3971 0.00291961 14.0809 4.76504e-05 13.7504C-0.00282431 13.4199 0.124227 13.1015 0.353838 12.8638L12.8328 0.384817ZM4.81098 4.84196C4.3381 5.31484 3.69675 5.5805 3.028 5.5805C2.35925 5.5805 1.71789 5.31484 1.24502 4.84196C0.772139 4.36908 0.506479 3.72773 0.506479 3.05898C0.506479 2.39023 0.772139 1.74887 1.24502 1.27599C1.71806 0.80295 2.35964 0.537196 3.02863 0.537196C3.69761 0.537196 4.3392 0.80295 4.81224 1.27599C5.28529 1.74904 5.55104 2.39062 5.55104 3.05961C5.55104 3.72859 5.28529 4.37018 4.81224 4.84322L4.81098 4.84196ZM10.158 13.755C10.6309 14.2279 11.2723 14.4935 11.941 14.4935C12.6098 14.4935 13.2511 14.2279 13.724 13.755C14.1969 13.2821 14.4625 12.6407 14.4625 11.972C14.4625 11.3033 14.1969 10.6619 13.724 10.189C13.2511 9.71614 12.6098 9.45048 11.941 9.45048C11.2723 9.45048 10.6309 9.71614 10.158 10.189C9.68516 10.6619 9.41951 11.3033 9.41951 11.972C9.41951 12.6407 9.68516 13.2821 10.158 13.755Z" fill="#A160FB"/>
</svg>
