<svg width="29" height="14" viewBox="0 0 29 14" fill="none" xmlns="http://www.w3.org/2000/svg">
<path d="M8.35714 7.14286H5.14286V10.3571C5.14286 10.5276 5.07513 10.6912 4.95457 10.8117C4.83401 10.9323 4.6705 11 4.5 11C4.3295 11 4.16599 10.9323 4.04543 10.8117C3.92487 10.6912 3.85714 10.5276 3.85714 10.3571V7.14286H0.642857C0.472361 7.14286 0.308848 7.07513 0.188289 6.95457C0.0677295 6.83401 0 6.6705 0 6.5C0 6.3295 0.0677295 6.16599 0.188289 6.04543C0.308848 5.92487 0.472361 5.85714 0.642857 5.85714H3.85714V2.64286C3.85714 2.47236 3.92487 2.30885 4.04543 2.18829C4.16599 2.06773 4.3295 2 4.5 2C4.6705 2 4.83401 2.06773 4.95457 2.18829C5.07513 2.30885 5.14286 2.47236 5.14286 2.64286V5.85714H8.35714C8.52764 5.85714 8.69115 5.92487 8.81171 6.04543C8.93227 6.16599 9 6.3295 9 6.5C9 6.6705 8.93227 6.83401 8.81171 6.95457C8.69115 7.07513 8.52764 7.14286 8.35714 7.14286Z" fill="white"/>
<path d="M17 1L9 13" stroke="white" stroke-width="2" stroke-linecap="round" stroke-linejoin="round"/>
<rect x="19" y="7" width="10" height="2" rx="1" fill="white"/>
</svg>
