<svg width="20" height="20" viewBox="0 0 20 20" fill="none" xmlns="http://www.w3.org/2000/svg">
<path d="M10 1.66667C14.6025 1.66667 18.3333 5.3975 18.3333 10C18.3333 14.6025 14.6025 18.3333 10 18.3333C5.39751 18.3333 1.66667 14.6025 1.66667 10C1.66667 5.3975 5.39751 1.66667 10 1.66667ZM10 3.33333C8.23189 3.33333 6.5362 4.03571 5.28596 5.28595C4.03572 6.5362 3.33334 8.23189 3.33334 10C3.33334 11.7681 4.03572 13.4638 5.28596 14.714C6.5362 15.9643 8.23189 16.6667 10 16.6667C11.7681 16.6667 13.4638 15.9643 14.7141 14.714C15.9643 13.4638 16.6667 11.7681 16.6667 10C16.6667 8.23189 15.9643 6.5362 14.7141 5.28595C13.4638 4.03571 11.7681 3.33333 10 3.33333ZM6.25 8.75C6.58153 8.75 6.89947 8.8817 7.13389 9.11612C7.36831 9.35054 7.5 9.66848 7.5 10C7.5 10.3315 7.36831 10.6495 7.13389 10.8839C6.89947 11.1183 6.58153 11.25 6.25 11.25C5.91848 11.25 5.60054 11.1183 5.36612 10.8839C5.1317 10.6495 5.00001 10.3315 5.00001 10C5.00001 9.66848 5.1317 9.35054 5.36612 9.11612C5.60054 8.8817 5.91848 8.75 6.25 8.75ZM10 8.75C10.3315 8.75 10.6495 8.8817 10.8839 9.11612C11.1183 9.35054 11.25 9.66848 11.25 10C11.25 10.3315 11.1183 10.6495 10.8839 10.8839C10.6495 11.1183 10.3315 11.25 10 11.25C9.66848 11.25 9.35054 11.1183 9.11612 10.8839C8.8817 10.6495 8.75 10.3315 8.75 10C8.75 9.66848 8.8817 9.35054 9.11612 9.11612C9.35054 8.8817 9.66848 8.75 10 8.75ZM13.75 8.75C14.0815 8.75 14.3995 8.8817 14.6339 9.11612C14.8683 9.35054 15 9.66848 15 10C15 10.3315 14.8683 10.6495 14.6339 10.8839C14.3995 11.1183 14.0815 11.25 13.75 11.25C13.4185 11.25 13.1005 11.1183 12.8661 10.8839C12.6317 10.6495 12.5 10.3315 12.5 10C12.5 9.66848 12.6317 9.35054 12.8661 9.11612C13.1005 8.8817 13.4185 8.75 13.75 8.75Z" fill="#999999"/>
</svg>
