<svg width="22" height="10" viewBox="0 0 22 10" fill="none" xmlns="http://www.w3.org/2000/svg">
<path fill-rule="evenodd" clip-rule="evenodd" d="M2.17736 1.7799C2.10367 1.7798 2.03068 1.79425 1.96258 1.82241C1.89448 1.85057 1.8326 1.89188 1.78049 1.94399C1.72838 1.9961 1.68707 2.05798 1.65891 2.12608C1.63075 2.19418 1.6163 2.26717 1.6164 2.34086L1.61719 7.94341C1.61721 8.09197 1.67624 8.23444 1.78129 8.33949C1.88634 8.44453 2.02881 8.50356 2.17737 8.50358L20.1061 8.50358C20.2547 8.50356 20.3972 8.44453 20.5022 8.33949C20.6073 8.23444 20.6663 8.09197 20.6663 7.94341L20.6655 2.34086C20.6655 2.1923 20.6065 2.04983 20.5014 1.94478C20.3964 1.83974 20.2539 1.78071 20.1054 1.78069L18.4256 1.78069L18.4248 4.48965C18.426 4.56404 18.4124 4.63791 18.3847 4.70696C18.357 4.77601 18.3159 4.83887 18.2637 4.89185C18.2114 4.94483 18.1492 4.98688 18.0805 5.01555C18.0119 5.04422 17.9382 5.05893 17.8638 5.05882C17.7895 5.05872 17.7158 5.0438 17.6473 5.01494C17.5787 4.98608 17.5166 4.94385 17.4645 4.89072C17.4124 4.83759 17.3715 4.77462 17.344 4.70549C17.3165 4.63636 17.3031 4.56245 17.3045 4.48807L17.3053 1.78069L15.063 1.78069L15.063 3.18152C15.0604 3.3284 15.0003 3.46841 14.8955 3.57138C14.7907 3.67435 14.6497 3.73205 14.5028 3.73205C14.3559 3.73205 14.2149 3.67435 14.1101 3.57138C14.0053 3.46841 13.9452 3.3284 13.9426 3.18152L13.9426 1.78069L11.7019 1.78069V4.48886C11.7032 4.56324 11.6897 4.63714 11.6621 4.70624C11.6345 4.77533 11.5935 4.83825 11.5413 4.8913C11.4892 4.94436 11.427 4.98651 11.3584 5.01527C11.2898 5.04404 11.2161 5.05886 11.1418 5.05886C11.0674 5.05886 10.9937 5.04404 10.9251 5.01527C10.8565 4.98651 10.7943 4.94436 10.7422 4.8913C10.69 4.83825 10.649 4.77533 10.6214 4.70624C10.5938 4.63714 10.5803 4.56324 10.5816 4.48886L10.5816 1.78069L8.34088 1.78069V3.18152C8.34217 3.2559 8.32864 3.3298 8.30107 3.3989C8.27349 3.46799 8.23244 3.5309 8.18029 3.58396C8.12815 3.63702 8.06596 3.67917 7.99735 3.70793C7.92874 3.7367 7.8551 3.75152 7.7807 3.75152C7.70631 3.75152 7.63266 3.7367 7.56405 3.70793C7.49545 3.67917 7.43326 3.63702 7.38111 3.58396C7.32897 3.5309 7.28791 3.46799 7.26034 3.3989C7.23277 3.3298 7.21923 3.2559 7.22053 3.18152L7.22053 1.78069L4.97824 1.78069L4.97903 4.48965C4.97898 4.56327 4.96443 4.63615 4.93621 4.70415C4.90799 4.77214 4.86666 4.83391 4.81457 4.88592C4.76247 4.93794 4.70065 4.97919 4.63262 5.00731C4.56459 5.03543 4.49168 5.04988 4.41807 5.04983C4.34445 5.04978 4.27157 5.03523 4.20357 5.00701C4.13558 4.97879 4.07382 4.93745 4.0218 4.88536C3.96978 4.83327 3.92853 4.77144 3.90041 4.70341C3.87229 4.63538 3.85784 4.56248 3.85789 4.48886L3.85868 1.7799L2.17816 1.78069L2.17736 1.7799ZM0.496839 2.34166C0.496768 2.12084 0.540209 1.90218 0.624678 1.69816C0.709147 1.49414 0.832989 1.30876 0.989128 1.15263C1.14527 0.996487 1.33064 0.872645 1.53466 0.788176C1.73868 0.703707 1.95734 0.660266 2.17816 0.660337H20.1054C20.3262 0.660266 20.5448 0.703707 20.7488 0.788176C20.9529 0.872645 21.1382 0.996487 21.2944 1.15263C21.4505 1.30876 21.5744 1.49414 21.6588 1.69816C21.7433 1.90218 21.7867 2.12084 21.7867 2.34165L21.7867 7.94341C21.7866 8.38909 21.6095 8.8165 21.2944 9.13164C20.9792 9.44679 20.5518 9.62387 20.1061 9.62393L2.17737 9.62393C1.73196 9.62366 1.30487 9.4466 0.989921 9.13164C0.67497 8.81669 0.497909 8.38961 0.497631 7.9442L0.496839 2.34166Z" fill="#999999"/>
</svg>
