<svg width="19" height="13" viewBox="0 0 19 13" fill="none" xmlns="http://www.w3.org/2000/svg">
<path fill-rule="evenodd" clip-rule="evenodd" d="M0 1.55C0 1.13891 0.163303 0.744666 0.453985 0.453985C0.744666 0.163303 1.13891 0 1.55 0H17.05C17.4611 0 17.8553 0.163303 18.146 0.453985C18.4367 0.744666 18.6 1.13891 18.6 1.55C18.6 1.96109 18.4367 2.35533 18.146 2.64602C17.8553 2.9367 17.4611 3.1 17.05 3.1H1.55C1.13891 3.1 0.744666 2.9367 0.453985 2.64602C0.163303 2.35533 0 1.96109 0 1.55ZM0 10.85C0 10.4389 0.163303 10.0447 0.453985 9.75398C0.744666 9.4633 1.13891 9.3 1.55 9.3H17.05C17.4611 9.3 17.8553 9.4633 18.146 9.75398C18.4367 10.0447 18.6 10.4389 18.6 10.85C18.6 11.2611 18.4367 11.6553 18.146 11.946C17.8553 12.2367 17.4611 12.4 17.05 12.4H1.55C1.13891 12.4 0.744666 12.2367 0.453985 11.946C0.163303 11.6553 0 11.2611 0 10.85Z" fill="white"/>
</svg>
