<svg width="20" height="14" viewBox="0 0 20 14" fill="none" xmlns="http://www.w3.org/2000/svg">
<path d="M0.231605 7.64L5.2312 13.64C5.32521 13.7529 5.44294 13.8437 5.57602 13.9059C5.70909 13.9681 5.85424 14.0002 6.00114 14H17.0002C17.7958 14 18.5588 13.6839 19.1214 13.1213C19.684 12.5587 20 11.7956 20 11V3C20 2.20435 19.684 1.44129 19.1214 0.878682C18.5588 0.316073 17.7958 2.14577e-06 17.0002 2.14577e-06H6.00114C5.85424 -0.000236273 5.70909 0.0318978 5.57602 0.0941184C5.44294 0.15634 5.32521 0.24712 5.2312 0.360003L0.231605 6.36C0.0819507 6.53969 -4.76837e-07 6.76615 -4.76837e-07 7C-4.76837e-07 7.23385 0.0819507 7.46031 0.231605 7.64ZM6.4711 2H17.0002C17.2654 2 17.5198 2.10536 17.7073 2.29289C17.8948 2.48043 18.0002 2.73479 18.0002 3V11C18.0002 11.2652 17.8948 11.5196 17.7073 11.7071C17.5198 11.8946 17.2654 12 17.0002 12H6.4711L2.30144 7L6.4711 2ZM9.29087 9.71C9.38383 9.80373 9.49442 9.87812 9.61627 9.92889C9.73812 9.97966 9.86881 10.0058 10.0008 10.0058C10.1328 10.0058 10.2635 9.97966 10.3854 9.92889C10.5072 9.87812 10.6178 9.80373 10.7108 9.71L12.0006 8.41L13.2905 9.71C13.4788 9.8983 13.7342 10.0041 14.0005 10.0041C14.2668 10.0041 14.5221 9.8983 14.7104 9.71C14.8987 9.5217 15.0045 9.2663 15.0045 9C15.0045 8.86814 14.9785 8.73757 14.9281 8.61575C14.8776 8.49393 14.8037 8.38324 14.7104 8.29L13.4105 7L14.7104 5.71C14.8042 5.61704 14.8785 5.50644 14.9293 5.38458C14.9801 5.26272 15.0062 5.13201 15.0062 5C15.0062 4.86799 14.9801 4.73728 14.9293 4.61542C14.8785 4.49357 14.8042 4.38296 14.7104 4.29C14.6175 4.19627 14.5069 4.12188 14.385 4.07111C14.2632 4.02034 14.1325 3.9942 14.0005 3.9942C13.8685 3.9942 13.7378 4.02034 13.6159 4.07111C13.4941 4.12188 13.3835 4.19627 13.2905 4.29L12.0006 5.59L10.7108 4.29C10.6178 4.19627 10.5072 4.12188 10.3854 4.07111C10.2635 4.02034 10.1328 3.9942 10.0008 3.9942C9.86881 3.9942 9.73812 4.02034 9.61627 4.07111C9.49442 4.12188 9.38383 4.19627 9.29087 4.29C9.19715 4.38296 9.12276 4.49357 9.072 4.61542C9.02123 4.73728 8.9951 4.86799 8.9951 5C8.9951 5.13201 9.02123 5.26272 9.072 5.38458C9.12276 5.50644 9.19715 5.61704 9.29087 5.71L10.5908 7L9.29087 8.29C9.19715 8.38296 9.12276 8.49356 9.072 8.61542C9.02123 8.73728 8.9951 8.86799 8.9951 9C8.9951 9.13201 9.02123 9.26272 9.072 9.38458C9.12276 9.50644 9.19715 9.61704 9.29087 9.71Z" fill="#999999"/>
</svg>
